<mxfile host="app.diagrams.net" modified="2024-03-13T16:38:59.800Z" agent="Mozilla/5.0 (Windows NT 10.0; Win64; x64) AppleWebKit/537.36 (KHTML, like Gecko) Chrome/122.0.0.0 Safari/537.36" etag="QDCiDAi0H8CmAUCkK9ET" version="23.1.5" type="gitlab">
  <diagram name="Page-1" id="7q4HlQAWyYblMiJdvrsi">
    <mxGraphModel dx="1434" dy="738" grid="1" gridSize="10" guides="1" tooltips="1" connect="1" arrows="1" fold="1" page="1" pageScale="1" pageWidth="1169" pageHeight="827" math="0" shadow="0">
      <root>
        <object label="" id="0">
          <mxCell />
        </object>
        <mxCell id="1" parent="0" />
        <mxCell id="TP4S8wGbkGFNACTItR2D-6" value="" style="whiteSpace=wrap;html=1;aspect=fixed;" parent="1" vertex="1">
          <mxGeometry x="240" y="29" width="749" height="749" as="geometry" />
        </mxCell>
        <mxCell id="kjRe0kCNGCsyt7RPdmPr-17" value="Employé" style="shape=umlActor;verticalLabelPosition=bottom;verticalAlign=top;html=1;" parent="1" vertex="1">
          <mxGeometry x="80" y="68" width="30" height="60" as="geometry" />
        </mxCell>
        <mxCell id="kjRe0kCNGCsyt7RPdmPr-23" value="&lt;br&gt;" style="html=1;verticalAlign=bottom;endArrow=block;curved=0;rounded=0;exitX=1;exitY=0.3333333333333333;exitDx=0;exitDy=0;exitPerimeter=0;entryX=0;entryY=0.5;entryDx=0;entryDy=0;" parent="1" source="kjRe0kCNGCsyt7RPdmPr-17" target="kjRe0kCNGCsyt7RPdmPr-24" edge="1">
          <mxGeometry width="80" relative="1" as="geometry">
            <mxPoint x="420" y="440" as="sourcePoint" />
            <mxPoint x="400" y="400" as="targetPoint" />
          </mxGeometry>
        </mxCell>
        <mxCell id="kjRe0kCNGCsyt7RPdmPr-24" value="Création d&#39;utilisateur" style="ellipse;whiteSpace=wrap;html=1;" parent="1" vertex="1">
          <mxGeometry x="564.5" y="60" width="100" height="56" as="geometry" />
        </mxCell>
        <mxCell id="TP4S8wGbkGFNACTItR2D-4" value="Connexion de &lt;br&gt;l&#39;utilisateur" style="ellipse;whiteSpace=wrap;html=1;" parent="1" vertex="1">
          <mxGeometry x="680" y="140" width="120" height="50" as="geometry" />
        </mxCell>
        <mxCell id="TP4S8wGbkGFNACTItR2D-5" value="&lt;br&gt;" style="html=1;verticalAlign=bottom;endArrow=block;curved=0;rounded=0;entryX=0;entryY=0.5;entryDx=0;entryDy=0;exitX=1;exitY=0.3333333333333333;exitDx=0;exitDy=0;exitPerimeter=0;" parent="1" source="kjRe0kCNGCsyt7RPdmPr-17" target="TP4S8wGbkGFNACTItR2D-4" edge="1">
          <mxGeometry width="80" relative="1" as="geometry">
            <mxPoint x="80" y="470" as="sourcePoint" />
            <mxPoint x="260" y="435" as="targetPoint" />
          </mxGeometry>
        </mxCell>
        <mxCell id="TP4S8wGbkGFNACTItR2D-8" value="Application" style="rounded=0;whiteSpace=wrap;html=1;" parent="1" vertex="1">
          <mxGeometry x="240" y="21" width="80" height="20" as="geometry" />
        </mxCell>
        <mxCell id="I1jN43FmlNPxhGX27zVu-1" value="Ressources Humaine" style="shape=umlActor;verticalLabelPosition=bottom;verticalAlign=top;html=1;" parent="1" vertex="1">
          <mxGeometry x="80" y="190" width="30" height="60" as="geometry" />
        </mxCell>
        <mxCell id="I1jN43FmlNPxhGX27zVu-2" value="Logistique&lt;div&gt;&lt;br/&gt;&lt;/div&gt;" style="shape=umlActor;verticalLabelPosition=bottom;verticalAlign=top;html=1;" parent="1" vertex="1">
          <mxGeometry x="80" y="314" width="30" height="60" as="geometry" />
        </mxCell>
        <mxCell id="I1jN43FmlNPxhGX27zVu-3" value="Informatique" style="shape=umlActor;verticalLabelPosition=bottom;verticalAlign=top;html=1;" parent="1" vertex="1">
          <mxGeometry x="80" y="430" width="30" height="60" as="geometry" />
        </mxCell>
        <mxCell id="I1jN43FmlNPxhGX27zVu-5" value="Communication" style="shape=umlActor;verticalLabelPosition=bottom;verticalAlign=top;html=1;" parent="1" vertex="1">
          <mxGeometry x="80" y="550" width="30" height="60" as="geometry" />
        </mxCell>
        <mxCell id="I1jN43FmlNPxhGX27zVu-9" value="&lt;br&gt;" style="html=1;verticalAlign=bottom;endArrow=block;curved=0;rounded=0;exitX=1;exitY=0.3333333333333333;exitDx=0;exitDy=0;exitPerimeter=0;entryX=0;entryY=0;entryDx=0;entryDy=0;" parent="1" source="I1jN43FmlNPxhGX27zVu-1" target="I1jN43FmlNPxhGX27zVu-10" edge="1">
          <mxGeometry width="80" relative="1" as="geometry">
            <mxPoint x="-10" y="405.5" as="sourcePoint" />
            <mxPoint x="280" y="685.5" as="targetPoint" />
          </mxGeometry>
        </mxCell>
        <mxCell id="I1jN43FmlNPxhGX27zVu-10" value="Consultation des actualités" style="ellipse;whiteSpace=wrap;html=1;" parent="1" vertex="1">
          <mxGeometry x="370" y="299.5" width="100" height="56" as="geometry" />
        </mxCell>
        <mxCell id="I1jN43FmlNPxhGX27zVu-11" value="&lt;br&gt;" style="html=1;verticalAlign=bottom;endArrow=block;curved=0;rounded=0;exitX=1;exitY=0.3333333333333333;exitDx=0;exitDy=0;exitPerimeter=0;entryX=0;entryY=0.5;entryDx=0;entryDy=0;" parent="1" source="I1jN43FmlNPxhGX27zVu-2" target="I1jN43FmlNPxhGX27zVu-10" edge="1">
          <mxGeometry width="80" relative="1" as="geometry">
            <mxPoint x="120" y="270" as="sourcePoint" />
            <mxPoint x="460" y="414" as="targetPoint" />
          </mxGeometry>
        </mxCell>
        <mxCell id="I1jN43FmlNPxhGX27zVu-12" value="&lt;br&gt;" style="html=1;verticalAlign=bottom;endArrow=block;curved=0;rounded=0;exitX=1;exitY=0.3333333333333333;exitDx=0;exitDy=0;exitPerimeter=0;entryX=0.087;entryY=0.728;entryDx=0;entryDy=0;entryPerimeter=0;" parent="1" source="I1jN43FmlNPxhGX27zVu-3" target="I1jN43FmlNPxhGX27zVu-10" edge="1">
          <mxGeometry width="80" relative="1" as="geometry">
            <mxPoint x="120" y="420" as="sourcePoint" />
            <mxPoint x="470" y="424" as="targetPoint" />
          </mxGeometry>
        </mxCell>
        <mxCell id="I1jN43FmlNPxhGX27zVu-14" value="&lt;font style=&quot;font-size: 10px;&quot;&gt;Nouveau recrutement&lt;/font&gt;" style="ellipse;whiteSpace=wrap;html=1;dashed=1;" parent="1" vertex="1">
          <mxGeometry x="490" y="238" width="120" height="40" as="geometry" />
        </mxCell>
        <mxCell id="I1jN43FmlNPxhGX27zVu-15" value="&lt;font style=&quot;font-size: 10px;&quot;&gt;Nouvelle livraison&lt;/font&gt;" style="ellipse;whiteSpace=wrap;html=1;dashed=1;" parent="1" vertex="1">
          <mxGeometry x="514" y="307.5" width="120" height="40" as="geometry" />
        </mxCell>
        <mxCell id="I1jN43FmlNPxhGX27zVu-16" value="&lt;font style=&quot;font-size: 10px;&quot;&gt;News sur le numérique&lt;/font&gt;" style="ellipse;whiteSpace=wrap;html=1;dashed=1;" parent="1" vertex="1">
          <mxGeometry x="490" y="374" width="120" height="40" as="geometry" />
        </mxCell>
        <mxCell id="I1jN43FmlNPxhGX27zVu-17" value="" style="endArrow=none;dashed=1;html=1;dashPattern=1 3;strokeWidth=2;rounded=0;entryX=0;entryY=1;entryDx=0;entryDy=0;exitX=1;exitY=0;exitDx=0;exitDy=0;" parent="1" source="I1jN43FmlNPxhGX27zVu-10" target="I1jN43FmlNPxhGX27zVu-14" edge="1">
          <mxGeometry width="50" height="50" relative="1" as="geometry">
            <mxPoint x="570" y="340" as="sourcePoint" />
            <mxPoint x="620" y="290" as="targetPoint" />
          </mxGeometry>
        </mxCell>
        <mxCell id="I1jN43FmlNPxhGX27zVu-18" value="" style="endArrow=none;dashed=1;html=1;dashPattern=1 3;strokeWidth=2;rounded=0;entryX=0;entryY=0.5;entryDx=0;entryDy=0;exitX=1;exitY=0.5;exitDx=0;exitDy=0;" parent="1" source="I1jN43FmlNPxhGX27zVu-10" target="I1jN43FmlNPxhGX27zVu-15" edge="1">
          <mxGeometry width="50" height="50" relative="1" as="geometry">
            <mxPoint x="475" y="394" as="sourcePoint" />
            <mxPoint x="528" y="358" as="targetPoint" />
          </mxGeometry>
        </mxCell>
        <mxCell id="I1jN43FmlNPxhGX27zVu-19" value="" style="endArrow=none;dashed=1;html=1;dashPattern=1 3;strokeWidth=2;rounded=0;entryX=0;entryY=0;entryDx=0;entryDy=0;exitX=1;exitY=1;exitDx=0;exitDy=0;" parent="1" source="I1jN43FmlNPxhGX27zVu-10" target="I1jN43FmlNPxhGX27zVu-16" edge="1">
          <mxGeometry width="50" height="50" relative="1" as="geometry">
            <mxPoint x="490" y="414" as="sourcePoint" />
            <mxPoint x="534" y="414" as="targetPoint" />
          </mxGeometry>
        </mxCell>
        <mxCell id="8iN0OC77Rr_tfoTPn8gM-1" value="Administateur" style="shape=umlActor;verticalLabelPosition=bottom;verticalAlign=top;html=1;" vertex="1" parent="1">
          <mxGeometry x="80" y="670" width="30" height="60" as="geometry" />
        </mxCell>
        <mxCell id="8iN0OC77Rr_tfoTPn8gM-3" value="Créer des actualités" style="ellipse;whiteSpace=wrap;html=1;" vertex="1" parent="1">
          <mxGeometry x="410" y="600" width="100" height="50" as="geometry" />
        </mxCell>
        <mxCell id="8iN0OC77Rr_tfoTPn8gM-4" value="&lt;br&gt;" style="html=1;verticalAlign=bottom;endArrow=block;curved=0;rounded=0;exitX=1;exitY=0.3333333333333333;exitDx=0;exitDy=0;exitPerimeter=0;entryX=0;entryY=1;entryDx=0;entryDy=0;" edge="1" parent="1" source="I1jN43FmlNPxhGX27zVu-5" target="I1jN43FmlNPxhGX27zVu-10">
          <mxGeometry width="80" relative="1" as="geometry">
            <mxPoint x="120" y="460" as="sourcePoint" />
            <mxPoint x="389" y="350" as="targetPoint" />
          </mxGeometry>
        </mxCell>
        <mxCell id="8iN0OC77Rr_tfoTPn8gM-11" value="&lt;br&gt;" style="html=1;verticalAlign=bottom;endArrow=block;curved=0;rounded=0;exitX=1;exitY=0.3333333333333333;exitDx=0;exitDy=0;exitPerimeter=0;entryX=0;entryY=0.5;entryDx=0;entryDy=0;" edge="1" parent="1" source="8iN0OC77Rr_tfoTPn8gM-1" target="8iN0OC77Rr_tfoTPn8gM-3">
          <mxGeometry width="80" relative="1" as="geometry">
            <mxPoint x="120" y="580" as="sourcePoint" />
            <mxPoint x="399" y="360" as="targetPoint" />
          </mxGeometry>
        </mxCell>
        <mxCell id="8iN0OC77Rr_tfoTPn8gM-12" value="&lt;br&gt;" style="html=1;verticalAlign=bottom;endArrow=block;curved=0;rounded=0;exitX=1;exitY=0.3333333333333333;exitDx=0;exitDy=0;exitPerimeter=0;entryX=0;entryY=0.5;entryDx=0;entryDy=0;" edge="1" parent="1" source="I1jN43FmlNPxhGX27zVu-5" target="8iN0OC77Rr_tfoTPn8gM-3">
          <mxGeometry width="80" relative="1" as="geometry">
            <mxPoint x="130" y="590" as="sourcePoint" />
            <mxPoint x="409" y="370" as="targetPoint" />
          </mxGeometry>
        </mxCell>
        <mxCell id="8iN0OC77Rr_tfoTPn8gM-13" value="Réception de notification" style="ellipse;whiteSpace=wrap;html=1;" vertex="1" parent="1">
          <mxGeometry x="750" y="630" width="100" height="50" as="geometry" />
        </mxCell>
        <mxCell id="8iN0OC77Rr_tfoTPn8gM-14" value="" style="endArrow=classic;html=1;rounded=0;exitX=0;exitY=0.3333333333333333;exitDx=0;exitDy=0;exitPerimeter=0;entryX=1;entryY=0.5;entryDx=0;entryDy=0;" edge="1" parent="1" source="8iN0OC77Rr_tfoTPn8gM-18" target="8iN0OC77Rr_tfoTPn8gM-13">
          <mxGeometry width="50" height="50" relative="1" as="geometry">
            <mxPoint x="120" y="580" as="sourcePoint" />
            <mxPoint x="850" y="660" as="targetPoint" />
          </mxGeometry>
        </mxCell>
        <mxCell id="8iN0OC77Rr_tfoTPn8gM-18" value="Utilisateur Authentifié &lt;br&gt;(Informatique, Communication, &lt;br&gt;Logistique, RH,...)" style="shape=umlActor;verticalLabelPosition=bottom;verticalAlign=top;html=1;" vertex="1" parent="1">
          <mxGeometry x="1070" y="636" width="30" height="60" as="geometry" />
        </mxCell>
      </root>
    </mxGraphModel>
  </diagram>
</mxfile>
